PathFileType	4	(X/Y/Z)	OpenSim_Sub08_CSBaseline_Accel.trc
DataRate	CameraRate	NumFrames	NumMarkers	Units	OrigDataRate	OrigDataStartFrame	OrigNumFrames
100	100	13	8	m	100	4096	5461
Frame#	Time	torso_imu_offset_imu	pelvis_imu_offset_imu	tibia_r_imu_offset_imu	femur_r_imu_offset_imu	tibia_l_imu_offset_imu	femur_l_imu_offset_imu	toes_r_imu_offset_imu	toes_l_imu_offset_imu
				X1	Y1	Z1	X2	Y2	Z2	X3	Y3	Z3	X4	Y4	Z4	X5	Y5	Z5	X6	Y6	Z6	X7	Y7	Z7	X8		Y8	Z8	

4096	40.95000000	11.77772800	-0.43858200	6.87960000	12.39632600	3.47302800	5.62187900	18.75294400	5.21941500	1.50194100	15.97243000	-2.73376600	1.85388500	13.13253500	-1.01297600	1.67568900	9.91039100	5.15462900	-1.24535500	13.98464800	-2.77217300	12.11161700	3.92550100	0.40420400	11.75089400
4097	40.96000000	11.69230600	-0.35788700	6.88260700	12.24421700	3.43494800	5.50861300	14.85992100	10.21805300	0.11376800	13.11690700	-4.25511000	0.33031700	14.00270000	-0.40008700	1.54941800	10.03186300	5.41918200	-0.93433500	10.26488000	-4.17080000	9.96431200	4.21279200	0.66450800	11.22142000
4098	40.97000000	11.26624500	-0.27656000	6.83575200	11.57060500	2.34475300	5.24603000	8.17356500	10.14124800	-1.37291900	10.33912800	-3.67023000	-0.23067600	15.08950500	0.85346500	1.77757700	10.24441100	4.49062400	-0.47302800	9.22885300	-3.53138700	9.88062900	4.28933100	1.46780400	11.55852500
4099	40.98000000	10.81737700	-0.20504900	6.70241300	10.41545300	0.44748400	5.16479300	5.19905600	7.65376300	-1.69551900	8.96713100	-1.78069600	0.80633600	15.31551600	2.41933100	1.88007400	10.28633100	3.86484100	0.02440600	12.35173700	-8.40008200	9.13357900	5.15741600	2.40602000	11.90583500
4100	40.99000000	10.33474200	-0.30473200	6.53596600	9.32122400	-1.88853900	5.04172200	6.61905300	3.95636600	-2.91306900	8.30302700	0.36048700	1.85622100	14.89155500	3.79424000	2.03718300	10.26347500	2.67273900	0.53521800	5.47226200	-5.07453100	6.32937700	5.45686700	2.96648200	12.68894800
4101	41.00000000	9.93582500	-0.42454500	6.46738900	8.54954300	-3.96033100	4.96699500	9.65889300	1.20952100	-4.36887700	7.19044800	1.76332400	1.73588600	13.96550100	4.38907000	1.10706700	10.06890000	1.89949900	0.77242600	4.71058000	-2.37259600	8.54203300	6.47357600	2.27014900	12.33540900
4102	41.01000000	9.32197300	-0.38959100	6.37198200	8.09569900	-5.35301600	4.90096000	11.24344600	0.52076200	-3.72956800	6.43953800	1.78551500	1.21747100	13.46743900	3.51729400	-0.46605600	9.98500600	0.91693600	0.90434000	6.02719000	-4.87703800	7.79577700	7.54562500	0.80784800	12.16589700
4103	41.02000000	8.69314800	-0.43627300	6.25625700	7.69373400	-5.72468900	4.91671200	10.20592600	-0.73860600	-2.77268200	6.91133600	0.25329400	0.16445600	13.54920800	1.93384800	0.12202600	9.58247500	0.39640200	0.85649000	5.91816400	-3.76866000	8.46665900	11.79903600	1.45728500	11.54952800
4104	41.03000000	8.12956700	-0.53371000	6.17420500	7.40078100	-4.73938600	4.88037800	9.02480400	-1.09320200	-1.20593000	8.47971700	-2.09211800	-0.84857700	13.15202200	0.58418400	1.05524500	10.00993500	-0.58743600	0.99772500	5.82540600	-2.84218700	8.24091500	14.61647100	4.87433700	14.20185200
4105	41.04000000	7.75706900	-0.63592500	5.96482200	7.34394900	-2.55280900	4.92603200	9.32308700	-1.70503000	-0.02000300	9.92062300	-4.19812800	-1.76141400	11.23322500	-0.53477300	1.23855000	10.19905900	-0.42365600	0.49575300	6.00353200	-2.26205400	8.47999400	16.30705200	2.05260500	12.81737800
4106	41.05000000	7.64931300	-0.84529000	5.77043900	7.46038600	-0.11171100	5.05097700	10.46547500	-2.73303700	0.41172700	10.06818900	-5.02252600	-2.32948900	8.89191500	-2.13433400	1.54886300	10.06281800	-0.62621900	0.06509900	5.55583000	-1.20497300	9.29694200	17.08656300	-2.59559400	10.60342600
4107	41.06000000	7.76328700	-1.07422700	5.61381600	7.90510200	2.07145200	5.14211600	11.22638600	-3.29510200	0.27176300	9.42352100	-4.33116600	-2.16541400	7.84867200	-5.06492600	0.98400300	10.82955200	0.30415900	-0.28161300	5.08898500	-1.41040400	8.97456700	16.81026900	1.88338300	9.97008200
4108	41.07000000	8.09397900	-1.16688600	5.48366700	8.45934700	3.66200700	5.06194000	10.69220500	-3.21055200	-0.25237400	9.07344000	-2.57499600	-1.53940100	8.23784200	-8.23705900	-0.39998500	10.71800900	0.92294900	-0.31156800	5.38577600	-2.23781200	8.38008500	13.98577900	4.83596500	11.76672500
